<svg width="1407" height="1261" viewBox="0 0 1407 1261" fill="none" xmlns="http://www.w3.org/2000/svg">
<g filter="url(#filter0_d)">
<rect x="414.708" y="143" width="578" height="578" rx="60" fill="#19C95D"/>
<rect x="414.708" y="143" width="578" height="578" rx="60" fill="url(#paint0_linear)"/>
</g>
<g filter="url(#filter1_d)">
<rect x="703.708" y="23" width="578" height="578" rx="60" transform="rotate(45 703.708 23)" fill="#FBBC05"/>
<rect x="703.708" y="23" width="578" height="578" rx="60" transform="rotate(45 703.708 23)" fill="url(#paint1_linear)"/>
</g>
<g filter="url(#filter2_d)">
<circle cx="703.208" cy="431.5" r="188.5" fill="#00D1FF"/>
<circle cx="703.208" cy="431.5" r="188.5" fill="url(#paint2_linear)"/>
</g>
<path d="M656.03 441.224C661.833 441.224 666.537 436.519 666.537 430.716C666.537 424.913 661.833 420.209 656.03 420.209C650.227 420.209 645.522 424.913 645.522 430.716C645.522 436.519 650.227 441.224 656.03 441.224Z" fill="white"/>
<path d="M656.029 441.473C650.098 441.473 645.273 436.648 645.273 430.717C645.273 424.786 650.098 419.961 656.029 419.961C661.96 419.961 666.785 424.786 666.785 430.717C666.785 436.648 661.96 441.473 656.029 441.473ZM656.029 420.458C650.373 420.458 645.771 425.06 645.771 430.716C645.771 436.373 650.373 440.975 656.029 440.975C661.685 440.975 666.288 436.373 666.288 430.716C666.288 425.06 661.686 420.458 656.029 420.458Z" fill="white"/>
<path d="M703.555 441.224C709.358 441.224 714.062 436.519 714.062 430.716C714.062 424.913 709.358 420.209 703.555 420.209C697.752 420.209 693.048 424.913 693.048 430.716C693.048 436.519 697.752 441.224 703.555 441.224Z" fill="white"/>
<path d="M703.555 441.473C697.624 441.473 692.799 436.648 692.799 430.717C692.799 424.786 697.624 419.961 703.555 419.961C709.486 419.961 714.311 424.786 714.311 430.717C714.311 436.648 709.486 441.473 703.555 441.473ZM703.555 420.458C697.898 420.458 693.296 425.06 693.296 430.716C693.296 436.373 697.898 440.975 703.555 440.975C709.211 440.975 713.813 436.373 713.813 430.716C713.813 425.06 709.211 420.458 703.555 420.458Z" fill="white"/>
<path d="M751.081 441.224C756.884 441.224 761.588 436.519 761.588 430.716C761.588 424.913 756.884 420.209 751.081 420.209C745.278 420.209 740.573 424.913 740.573 430.716C740.573 436.519 745.278 441.224 751.081 441.224Z" fill="white"/>
<path d="M751.08 441.473C745.149 441.473 740.324 436.648 740.324 430.717C740.324 424.786 745.149 419.961 751.08 419.961C757.011 419.961 761.836 424.786 761.836 430.717C761.836 436.648 757.011 441.473 751.08 441.473ZM751.08 420.458C745.424 420.458 740.822 425.06 740.822 430.716C740.822 436.373 745.424 440.975 751.08 440.975C756.736 440.975 761.338 436.373 761.338 430.716C761.338 425.06 756.736 420.458 751.08 420.458Z" fill="white"/>
<path d="M624.199 513.957C629.663 519.422 636.93 522.432 644.658 522.432C652.387 522.432 659.653 519.422 665.118 513.957C670.582 508.492 673.592 501.226 673.592 493.498C673.592 485.769 670.583 478.503 665.118 473.038L622.797 430.717L663.869 389.645C675.151 378.363 675.151 360.007 663.869 348.725C658.404 343.26 651.137 340.25 643.409 340.25C635.68 340.25 628.414 343.26 622.949 348.725L561.418 410.257C550.137 421.538 550.137 439.895 561.418 451.177L624.199 513.957ZM576.493 425.332L638.025 363.8C639.512 362.314 641.461 361.57 643.41 361.57C645.359 361.57 647.307 362.314 648.794 363.8C651.768 366.774 651.768 371.595 648.794 374.568L598.03 425.332C595.056 428.305 595.056 433.126 598.03 436.1L650.043 488.113C653.016 491.086 653.016 495.907 650.043 498.881C648.556 500.368 646.607 501.111 644.658 501.111C642.709 501.111 640.761 500.368 639.274 498.881L576.493 436.101C573.52 433.127 573.52 428.306 576.493 425.332Z" fill="white"/>
<path d="M644.658 522.68C636.863 522.68 629.534 519.645 624.022 514.132L561.242 451.352C549.863 439.974 549.863 421.459 561.242 410.08L622.774 348.547C628.286 343.035 635.615 340 643.41 340C651.205 340 658.533 343.036 664.045 348.547C675.424 359.926 675.424 378.441 664.045 389.819L623.149 430.715L665.294 472.861C670.806 478.373 673.842 485.702 673.842 493.497C673.842 501.292 670.806 508.621 665.294 514.132C659.782 519.645 652.454 522.68 644.658 522.68ZM643.41 340.498C635.747 340.498 628.544 343.482 623.126 348.899L561.594 410.432C550.409 421.616 550.409 439.815 561.594 451L624.374 513.78C629.792 519.198 636.996 522.182 644.658 522.182C652.321 522.182 659.524 519.198 664.942 513.78C670.36 508.362 673.344 501.159 673.344 493.496C673.344 485.834 670.36 478.631 664.942 473.212L622.445 430.715L663.693 389.467C674.878 378.282 674.878 360.083 663.693 348.899C658.275 343.482 651.072 340.498 643.41 340.498ZM644.658 501.359C642.558 501.359 640.583 500.541 639.098 499.056L576.317 436.276C574.832 434.791 574.014 432.816 574.014 430.716C574.014 428.615 574.832 426.641 576.317 425.156L637.849 363.624C639.334 362.139 641.309 361.321 643.409 361.321C645.509 361.321 647.484 362.139 648.969 363.624C650.454 365.109 651.272 367.084 651.272 369.184C651.272 371.284 650.454 373.259 648.969 374.744L598.206 425.507C595.334 428.379 595.334 433.052 598.206 435.924L650.219 487.937C651.704 489.422 652.522 491.396 652.522 493.496C652.522 495.597 651.704 497.571 650.219 499.056C648.734 500.542 646.758 501.359 644.658 501.359ZM643.41 361.818C641.442 361.818 639.592 362.585 638.201 363.975L576.669 425.507C575.278 426.898 574.512 428.748 574.512 430.715C574.512 432.683 575.278 434.532 576.669 435.923L639.45 498.703C640.842 500.095 642.691 500.861 644.659 500.861C646.626 500.861 648.476 500.095 649.867 498.703C651.258 497.312 652.024 495.462 652.024 493.495C652.024 491.528 651.258 489.678 649.867 488.287L597.854 436.276C594.789 433.21 594.789 428.221 597.854 425.155L648.618 374.392C650.009 373.001 650.775 371.151 650.775 369.184C650.775 367.217 650.009 365.367 648.618 363.976C647.226 362.585 645.377 361.818 643.41 361.818Z" fill="white"/>
<path d="M784.199 348.725C778.734 343.26 771.467 340.25 763.739 340.25C756.011 340.25 748.744 343.259 743.279 348.725C731.998 360.007 731.998 378.363 743.279 389.645L784.351 430.717L742.03 473.037C730.749 484.319 730.749 502.676 742.03 513.957C747.495 519.422 754.762 522.432 762.49 522.432C770.218 522.432 777.485 519.422 782.95 513.957L845.73 451.177C857.012 439.896 857.012 421.539 845.73 410.257L784.199 348.725ZM830.655 436.101L767.874 498.881C766.387 500.368 764.439 501.111 762.49 501.111C760.542 501.111 758.593 500.368 757.106 498.881C754.132 495.907 754.132 491.086 757.106 488.113L809.119 436.1C812.092 433.127 812.092 428.306 809.119 425.332L758.354 374.569C755.381 371.596 755.381 366.774 758.354 363.801C759.841 362.315 761.79 361.571 763.739 361.571C765.687 361.571 767.636 362.315 769.122 363.801L830.654 425.333C833.628 428.306 833.628 433.127 830.655 436.101Z" fill="white"/>
<path d="M762.49 522.68C754.695 522.68 747.366 519.644 741.854 514.132C730.476 502.753 730.476 484.239 741.854 472.86L783.999 430.715L743.103 389.819C731.724 378.441 731.724 359.926 743.103 348.547C748.615 343.035 755.944 340 763.739 340C771.534 340 778.863 343.036 784.375 348.547L845.907 410.079C857.285 421.458 857.285 439.973 845.907 451.351L783.126 514.132C777.614 519.644 770.285 522.68 762.49 522.68ZM763.739 340.498C756.077 340.498 748.873 343.482 743.455 348.899C732.27 360.084 732.27 378.283 743.455 389.467L784.703 430.715L742.206 473.212C731.022 484.397 731.022 502.595 742.206 513.78C747.624 519.198 754.828 522.182 762.49 522.182C770.152 522.182 777.356 519.198 782.774 513.78L845.555 451C856.739 439.815 856.739 421.616 845.555 410.432L784.023 348.9C778.605 343.482 771.401 340.498 763.739 340.498ZM762.49 501.359C760.389 501.359 758.415 500.541 756.93 499.056C755.445 497.571 754.627 495.597 754.627 493.496C754.627 491.395 755.445 489.421 756.93 487.936L808.942 435.923C811.815 433.051 811.815 428.379 808.942 425.507L758.179 374.744C755.113 371.678 755.113 366.69 758.179 363.624C759.664 362.139 761.638 361.321 763.739 361.321C765.839 361.321 767.814 362.139 769.299 363.624L830.831 425.156C832.316 426.64 833.134 428.615 833.134 430.715C833.134 432.816 832.316 434.79 830.831 436.275L768.05 499.056C766.565 500.541 764.591 501.359 762.49 501.359ZM763.739 361.818C761.772 361.818 759.922 362.585 758.53 363.976C755.658 366.847 755.658 371.52 758.53 374.392L809.294 425.155C812.36 428.222 812.36 433.21 809.294 436.275L757.282 488.288C755.89 489.679 755.124 491.529 755.124 493.496C755.124 495.463 755.89 497.313 757.282 498.705C758.673 500.096 760.523 500.862 762.49 500.862C764.457 500.862 766.307 500.096 767.699 498.705L830.479 435.924C831.87 434.533 832.636 432.683 832.636 430.716C832.636 428.749 831.87 426.899 830.479 425.508L768.947 363.976C767.556 362.585 765.706 361.818 763.739 361.818Z" fill="white"/>
<path d="M114.242 966.156H92.9043L88.7051 981H74.252L97.543 909.906H109.994L132.846 981H118.393L114.242 966.156ZM96.2734 954.486H111.02L103.744 928.314L96.2734 954.486ZM173.617 964.447L178.207 928.168H190.658L181.186 981H169.271L162.338 947.406L155.648 981H143.734L134.262 928.168H146.664L151.254 964.594L157.895 928.168H166.977L173.617 964.447ZM225.521 981.977C221.452 981.977 217.758 981.309 214.438 979.975C211.117 978.64 208.269 976.833 205.893 974.555C203.516 972.243 201.677 969.542 200.375 966.449C199.105 963.324 198.471 959.988 198.471 956.439V954.486C198.471 950.45 199.105 946.771 200.375 943.451C201.645 940.098 203.419 937.217 205.697 934.809C207.976 932.4 210.678 930.528 213.803 929.193C216.928 927.859 220.329 927.191 224.008 927.191C227.816 927.191 231.202 927.826 234.164 929.096C237.159 930.333 239.682 932.09 241.732 934.369C243.816 936.648 245.395 939.398 246.469 942.621C247.543 945.811 248.08 949.343 248.08 953.217V958.979H212.24C212.501 960.769 213.021 962.413 213.803 963.91C214.617 965.375 215.642 966.645 216.879 967.719C218.116 968.793 219.532 969.623 221.127 970.209C222.722 970.795 224.464 971.088 226.352 971.088C227.686 971.088 229.005 970.958 230.307 970.697C231.641 970.437 232.911 970.062 234.115 969.574C235.32 969.053 236.443 968.419 237.484 967.67C238.526 966.921 239.438 966.042 240.219 965.033L247.006 972.357C246.16 973.562 245.053 974.75 243.686 975.922C242.351 977.061 240.756 978.087 238.9 978.998C237.077 979.877 235.043 980.593 232.797 981.146C230.551 981.7 228.126 981.977 225.521 981.977ZM223.91 938.178C222.38 938.178 220.98 938.454 219.711 939.008C218.441 939.529 217.318 940.294 216.342 941.303C215.398 942.312 214.6 943.516 213.949 944.916C213.298 946.316 212.81 947.878 212.484 949.604H234.75V948.529C234.685 947.097 234.408 945.746 233.92 944.477C233.432 943.207 232.732 942.117 231.82 941.205C230.909 940.261 229.786 939.529 228.451 939.008C227.149 938.454 225.635 938.178 223.91 938.178ZM294.027 966.498C294.027 965.684 293.832 964.968 293.441 964.35C293.083 963.731 292.416 963.161 291.439 962.641C290.495 962.087 289.226 961.583 287.631 961.127C286.036 960.671 284.018 960.215 281.576 959.76C278.484 959.141 275.652 958.376 273.08 957.465C270.541 956.521 268.36 955.398 266.537 954.096C264.714 952.761 263.282 951.231 262.24 949.506C261.231 947.781 260.727 945.795 260.727 943.549C260.727 941.368 261.247 939.285 262.289 937.299C263.331 935.313 264.828 933.572 266.781 932.074C268.734 930.577 271.111 929.389 273.91 928.51C276.71 927.631 279.867 927.191 283.383 927.191C287.061 927.191 290.365 927.631 293.295 928.51C296.225 929.356 298.699 930.544 300.717 932.074C302.768 933.572 304.33 935.362 305.404 937.445C306.479 939.529 307.016 941.791 307.016 944.232H293.441C293.441 942.182 292.611 940.473 290.951 939.105C289.291 937.706 286.768 937.006 283.383 937.006C280.225 937.006 277.833 937.576 276.205 938.715C274.61 939.854 273.812 941.254 273.812 942.914C273.812 943.695 273.975 944.428 274.301 945.111C274.626 945.762 275.196 946.365 276.01 946.918C276.856 947.439 277.995 947.927 279.428 948.383C280.86 948.806 282.683 949.18 284.896 949.506C288.087 950.027 291.049 950.694 293.783 951.508C296.518 952.322 298.878 953.38 300.863 954.682C302.849 955.951 304.395 957.514 305.502 959.369C306.641 961.192 307.211 963.373 307.211 965.912C307.211 968.256 306.641 970.421 305.502 972.406C304.395 974.359 302.8 976.052 300.717 977.484C298.666 978.917 296.176 980.04 293.246 980.854C290.316 981.635 287.045 982.025 283.432 982.025C279.46 982.025 275.945 981.505 272.885 980.463C269.857 979.421 267.318 978.07 265.268 976.41C263.217 974.717 261.654 972.813 260.58 970.697C259.538 968.549 259.018 966.4 259.018 964.252H271.957C272.055 965.684 272.445 966.921 273.129 967.963C273.812 968.972 274.691 969.802 275.766 970.453C276.84 971.072 278.061 971.527 279.428 971.82C280.827 972.113 282.26 972.26 283.725 972.26C287.077 972.26 289.633 971.723 291.391 970.648C293.148 969.574 294.027 968.191 294.027 966.498ZM318.148 954.096C318.148 950.255 318.702 946.706 319.809 943.451C320.915 940.163 322.527 937.315 324.643 934.906C326.791 932.497 329.395 930.609 332.455 929.242C335.548 927.875 339.079 927.191 343.051 927.191C347.022 927.191 350.554 927.875 353.646 929.242C356.739 930.609 359.343 932.497 361.459 934.906C363.607 937.315 365.235 940.163 366.342 943.451C367.449 946.706 368.002 950.255 368.002 954.096V955.121C368.002 958.995 367.449 962.576 366.342 965.863C365.235 969.118 363.624 971.951 361.508 974.359C359.392 976.768 356.788 978.656 353.695 980.023C350.603 981.358 347.087 982.025 343.148 982.025C339.177 982.025 335.629 981.358 332.504 980.023C329.411 978.656 326.791 976.768 324.643 974.359C322.527 971.951 320.915 969.118 319.809 965.863C318.702 962.576 318.148 958.995 318.148 955.121V954.096ZM331.723 955.121C331.723 957.335 331.934 959.418 332.357 961.371C332.781 963.292 333.448 964.984 334.359 966.449C335.271 967.882 336.443 969.021 337.875 969.867C339.34 970.714 341.098 971.137 343.148 971.137C345.134 971.137 346.843 970.714 348.275 969.867C349.708 969.021 350.863 967.882 351.742 966.449C352.654 964.984 353.321 963.292 353.744 961.371C354.167 959.418 354.379 957.335 354.379 955.121V954.096C354.379 951.947 354.167 949.913 353.744 947.992C353.321 946.072 352.654 944.379 351.742 942.914C350.863 941.449 349.708 940.294 348.275 939.447C346.843 938.601 345.102 938.178 343.051 938.178C341.033 938.178 339.307 938.601 337.875 939.447C336.443 940.294 335.271 941.449 334.359 942.914C333.448 944.379 332.781 946.072 332.357 947.992C331.934 949.913 331.723 951.947 331.723 954.096V955.121ZM388.51 928.168L388.9 934.564C389.91 932.286 391.293 930.495 393.051 929.193C394.841 927.859 397.006 927.191 399.545 927.191C403.809 927.191 406.592 929.063 407.895 932.807C408.936 931.049 410.255 929.682 411.85 928.705C413.477 927.696 415.43 927.191 417.709 927.191C419.304 927.191 420.785 927.484 422.152 928.07C423.552 928.656 424.757 929.6 425.766 930.902C426.807 932.172 427.605 933.832 428.158 935.883C428.744 937.901 429.037 940.375 429.037 943.305V981H416.684V943.256C416.684 942.247 416.57 941.417 416.342 940.766C416.146 940.115 415.87 939.61 415.512 939.252C415.154 938.861 414.73 938.601 414.242 938.471C413.786 938.308 413.314 938.227 412.826 938.227C411.882 938.227 411.085 938.454 410.434 938.91C409.783 939.333 409.278 939.919 408.92 940.668V981H396.957V943.207C396.957 942.198 396.859 941.368 396.664 940.717C396.469 940.066 396.192 939.561 395.834 939.203C395.508 938.845 395.118 938.601 394.662 938.471C394.206 938.308 393.718 938.227 393.197 938.227C392.156 938.227 391.309 938.52 390.658 939.105C390.04 939.691 389.551 940.473 389.193 941.449V981H376.84V928.168H388.51ZM465.756 981.977C461.687 981.977 457.992 981.309 454.672 979.975C451.352 978.64 448.503 976.833 446.127 974.555C443.751 972.243 441.911 969.542 440.609 966.449C439.34 963.324 438.705 959.988 438.705 956.439V954.486C438.705 950.45 439.34 946.771 440.609 943.451C441.879 940.098 443.653 937.217 445.932 934.809C448.21 932.4 450.912 930.528 454.037 929.193C457.162 927.859 460.564 927.191 464.242 927.191C468.051 927.191 471.436 927.826 474.398 929.096C477.393 930.333 479.916 932.09 481.967 934.369C484.05 936.648 485.629 939.398 486.703 942.621C487.777 945.811 488.314 949.343 488.314 953.217V958.979H452.475C452.735 960.769 453.256 962.413 454.037 963.91C454.851 965.375 455.876 966.645 457.113 967.719C458.35 968.793 459.766 969.623 461.361 970.209C462.956 970.795 464.698 971.088 466.586 971.088C467.921 971.088 469.239 970.958 470.541 970.697C471.876 970.437 473.145 970.062 474.35 969.574C475.554 969.053 476.677 968.419 477.719 967.67C478.76 966.921 479.672 966.042 480.453 965.033L487.24 972.357C486.394 973.562 485.287 974.75 483.92 975.922C482.585 977.061 480.99 978.087 479.135 978.998C477.312 979.877 475.277 980.593 473.031 981.146C470.785 981.7 468.36 981.977 465.756 981.977ZM464.145 938.178C462.615 938.178 461.215 938.454 459.945 939.008C458.676 939.529 457.553 940.294 456.576 941.303C455.632 942.312 454.835 943.516 454.184 944.916C453.533 946.316 453.044 947.878 452.719 949.604H474.984V948.529C474.919 947.097 474.643 945.746 474.154 944.477C473.666 943.207 472.966 942.117 472.055 941.205C471.143 940.261 470.02 939.529 468.686 939.008C467.383 938.454 465.87 938.178 464.145 938.178ZM559.652 981V909.906H583.529C587.403 909.906 590.919 910.297 594.076 911.078C597.266 911.859 599.984 913.048 602.23 914.643C604.477 916.238 606.202 918.256 607.406 920.697C608.643 923.139 609.262 926.02 609.262 929.34C609.229 932.66 608.334 935.639 606.576 938.275C604.851 940.912 602.296 942.914 598.91 944.281C600.961 944.802 602.735 945.583 604.232 946.625C605.73 947.667 606.967 948.904 607.943 950.336C608.952 951.736 609.685 953.282 610.141 954.975C610.629 956.635 610.873 958.36 610.873 960.15C610.873 963.568 610.287 966.579 609.115 969.184C607.943 971.788 606.267 973.969 604.086 975.727C601.905 977.484 599.252 978.803 596.127 979.682C593.002 980.561 589.486 981 585.58 981H559.652ZM573.422 949.652V969.916H585.629C589.372 969.883 592.221 968.972 594.174 967.182C596.16 965.359 597.152 962.982 597.152 960.053C597.185 956.798 596.306 954.258 594.516 952.436C592.725 950.613 589.958 949.685 586.215 949.652H573.422ZM573.422 939.74H583.627C587.436 939.708 590.365 938.91 592.416 937.348C594.467 935.785 595.508 933.49 595.541 930.463C595.541 927.143 594.516 924.766 592.465 923.334C590.414 921.869 587.452 921.12 583.578 921.088H573.422V939.74ZM658.236 927.191C660.287 927.191 662.175 927.338 663.9 927.631C665.658 927.891 667.074 928.184 668.148 928.51L666.146 942.035C664.356 941.612 662.517 941.303 660.629 941.107C658.773 940.88 656.999 940.766 655.307 940.766C651.498 940.766 648.438 941.498 646.127 942.963C643.848 944.428 642.139 946.527 641 949.262V981H627.426V928.168H640.072L640.707 936.811C642.855 933.816 645.427 931.472 648.422 929.779C651.417 928.054 654.688 927.191 658.236 927.191ZM713.363 981C713.038 980.349 712.761 979.6 712.533 978.754C712.305 977.908 712.11 977.012 711.947 976.068C711.199 976.882 710.336 977.647 709.359 978.363C708.383 979.079 707.292 979.714 706.088 980.268C704.916 980.788 703.614 981.195 702.182 981.488C700.749 981.814 699.203 981.977 697.543 981.977C694.841 981.977 692.351 981.586 690.072 980.805C687.826 980.023 685.889 978.933 684.262 977.533C682.634 976.133 681.365 974.473 680.453 972.553C679.542 970.6 679.086 968.484 679.086 966.205C679.086 960.639 681.153 956.342 685.287 953.314C689.454 950.255 695.655 948.725 703.891 948.725H711.459V945.6C711.459 943.061 710.629 941.059 708.969 939.594C707.309 938.096 704.916 937.348 701.791 937.348C699.024 937.348 697.006 937.95 695.736 939.154C694.467 940.326 693.832 941.905 693.832 943.891H680.258C680.258 941.645 680.746 939.512 681.723 937.494C682.732 935.476 684.18 933.702 686.068 932.172C687.989 930.642 690.316 929.438 693.051 928.559C695.818 927.647 698.975 927.191 702.523 927.191C705.714 927.191 708.676 927.582 711.41 928.363C714.177 929.145 716.57 930.3 718.588 931.83C720.606 933.36 722.185 935.297 723.324 937.641C724.464 939.952 725.033 942.637 725.033 945.697V968.354C725.033 971.186 725.212 973.529 725.57 975.385C725.928 977.24 726.449 978.835 727.133 980.17V981H713.363ZM700.424 971.479C701.791 971.479 703.061 971.316 704.232 970.99C705.404 970.665 706.462 970.242 707.406 969.721C708.35 969.2 709.164 968.614 709.848 967.963C710.531 967.279 711.068 966.596 711.459 965.912V956.83H704.525C702.41 956.83 700.603 957.042 699.105 957.465C697.608 957.855 696.387 958.425 695.443 959.174C694.499 959.89 693.799 960.769 693.344 961.811C692.888 962.82 692.66 963.926 692.66 965.131C692.66 966.954 693.295 968.467 694.564 969.672C695.867 970.876 697.82 971.479 700.424 971.479ZM757.846 970.111H788.949V981H739.291V972.602L768.881 939.203H739.975V928.168H787.729V936.322L757.846 970.111ZM804.086 928.168H832.846V969.965H847.152V981H804.086V969.965H819.125V939.252H804.086V928.168ZM818.148 914.643C818.148 913.601 818.327 912.641 818.686 911.762C819.076 910.85 819.613 910.085 820.297 909.467C820.98 908.816 821.794 908.311 822.738 907.953C823.715 907.595 824.789 907.416 825.961 907.416C828.37 907.416 830.274 908.1 831.674 909.467C833.106 910.801 833.822 912.527 833.822 914.643C833.822 916.758 833.106 918.5 831.674 919.867C830.274 921.202 828.37 921.869 825.961 921.869C824.789 921.869 823.715 921.69 822.738 921.332C821.794 920.974 820.98 920.486 820.297 919.867C819.613 919.216 819.076 918.451 818.686 917.572C818.327 916.661 818.148 915.684 818.148 914.643ZM863.363 906H892.904V969.965H908.041V981H863.363V969.965H879.184V917.084H863.363V906ZM924.203 928.168H952.963V969.965H967.27V981H924.203V969.965H939.242V939.252H924.203V928.168ZM938.266 914.643C938.266 913.601 938.445 912.641 938.803 911.762C939.193 910.85 939.73 910.085 940.414 909.467C941.098 908.816 941.911 908.311 942.855 907.953C943.832 907.595 944.906 907.416 946.078 907.416C948.487 907.416 950.391 908.1 951.791 909.467C953.223 910.801 953.939 912.527 953.939 914.643C953.939 916.758 953.223 918.5 951.791 919.867C950.391 921.202 948.487 921.869 946.078 921.869C944.906 921.869 943.832 921.69 942.855 921.332C941.911 920.974 941.098 920.486 940.414 919.867C939.73 919.216 939.193 918.451 938.803 917.572C938.445 916.661 938.266 915.684 938.266 914.643ZM1013.66 981C1013.33 980.349 1013.05 979.6 1012.83 978.754C1012.6 977.908 1012.4 977.012 1012.24 976.068C1011.49 976.882 1010.63 977.647 1009.65 978.363C1008.68 979.079 1007.59 979.714 1006.38 980.268C1005.21 980.788 1003.91 981.195 1002.47 981.488C1001.04 981.814 999.496 981.977 997.836 981.977C995.134 981.977 992.644 981.586 990.365 980.805C988.119 980.023 986.182 978.933 984.555 977.533C982.927 976.133 981.658 974.473 980.746 972.553C979.835 970.6 979.379 968.484 979.379 966.205C979.379 960.639 981.446 956.342 985.58 953.314C989.747 950.255 995.948 948.725 1004.18 948.725H1011.75V945.6C1011.75 943.061 1010.92 941.059 1009.26 939.594C1007.6 938.096 1005.21 937.348 1002.08 937.348C999.317 937.348 997.299 937.95 996.029 939.154C994.76 940.326 994.125 941.905 994.125 943.891H980.551C980.551 941.645 981.039 939.512 982.016 937.494C983.025 935.476 984.473 933.702 986.361 932.172C988.282 930.642 990.609 929.438 993.344 928.559C996.111 927.647 999.268 927.191 1002.82 927.191C1006.01 927.191 1008.97 927.582 1011.7 928.363C1014.47 929.145 1016.86 930.3 1018.88 931.83C1020.9 933.36 1022.48 935.297 1023.62 937.641C1024.76 939.952 1025.33 942.637 1025.33 945.697V968.354C1025.33 971.186 1025.51 973.529 1025.86 975.385C1026.22 977.24 1026.74 978.835 1027.43 980.17V981H1013.66ZM1000.72 971.479C1002.08 971.479 1003.35 971.316 1004.53 970.99C1005.7 970.665 1006.76 970.242 1007.7 969.721C1008.64 969.2 1009.46 968.614 1010.14 967.963C1010.82 967.279 1011.36 966.596 1011.75 965.912V956.83H1004.82C1002.7 956.83 1000.9 957.042 999.398 957.465C997.901 957.855 996.68 958.425 995.736 959.174C994.792 959.89 994.092 960.769 993.637 961.811C993.181 962.82 992.953 963.926 992.953 965.131C992.953 966.954 993.588 968.467 994.857 969.672C996.16 970.876 998.113 971.479 1000.72 971.479ZM1053.01 928.168L1053.84 935.492C1055.73 932.855 1058.02 930.821 1060.73 929.389C1063.43 927.924 1066.42 927.191 1069.71 927.191C1072.38 927.191 1074.82 927.582 1077.04 928.363C1079.25 929.145 1081.15 930.398 1082.75 932.123C1084.38 933.816 1085.63 936.013 1086.51 938.715C1087.42 941.384 1087.88 944.639 1087.88 948.48V981H1074.3V948.676C1074.3 946.592 1074.06 944.883 1073.57 943.549C1073.11 942.182 1072.45 941.107 1071.57 940.326C1070.69 939.545 1069.63 939.008 1068.39 938.715C1067.16 938.389 1065.76 938.227 1064.19 938.227C1061.88 938.227 1059.91 938.699 1058.29 939.643C1056.66 940.554 1055.34 941.824 1054.33 943.451V981H1040.71V928.168H1053.01ZM1160.04 981V909.906H1178.45C1183.17 909.906 1187.44 910.72 1191.24 912.348C1195.09 913.943 1198.36 916.189 1201.06 919.086C1203.79 921.951 1205.89 925.385 1207.36 929.389C1208.85 933.393 1209.6 937.787 1209.6 942.572V948.432C1209.6 953.217 1208.85 957.611 1207.36 961.615C1205.89 965.587 1203.83 969.021 1201.16 971.918C1198.49 974.783 1195.28 977.012 1191.54 978.607C1187.79 980.202 1183.66 981 1179.13 981H1160.04ZM1173.86 921.039V969.965H1179.13C1181.71 969.965 1184 969.477 1186.02 968.5C1188.07 967.523 1189.8 966.107 1191.2 964.252C1192.63 962.396 1193.72 960.15 1194.47 957.514C1195.22 954.844 1195.59 951.817 1195.59 948.432V942.475C1195.59 939.285 1195.22 936.387 1194.47 933.783C1193.75 931.146 1192.66 928.884 1191.2 926.996C1189.76 925.108 1187.97 923.643 1185.82 922.602C1183.71 921.56 1181.25 921.039 1178.45 921.039H1173.86ZM1246.52 981.977C1242.45 981.977 1238.75 981.309 1235.43 979.975C1232.11 978.64 1229.26 976.833 1226.89 974.555C1224.51 972.243 1222.67 969.542 1221.37 966.449C1220.1 963.324 1219.47 959.988 1219.47 956.439V954.486C1219.47 950.45 1220.1 946.771 1221.37 943.451C1222.64 940.098 1224.41 937.217 1226.69 934.809C1228.97 932.4 1231.67 930.528 1234.8 929.193C1237.92 927.859 1241.33 927.191 1245 927.191C1248.81 927.191 1252.2 927.826 1255.16 929.096C1258.15 930.333 1260.68 932.09 1262.73 934.369C1264.81 936.648 1266.39 939.398 1267.46 942.621C1268.54 945.811 1269.08 949.343 1269.08 953.217V958.979H1233.24C1233.5 960.769 1234.02 962.413 1234.8 963.91C1235.61 965.375 1236.64 966.645 1237.88 967.719C1239.11 968.793 1240.53 969.623 1242.12 970.209C1243.72 970.795 1245.46 971.088 1247.35 971.088C1248.68 971.088 1250 970.958 1251.3 970.697C1252.64 970.437 1253.91 970.062 1255.11 969.574C1256.32 969.053 1257.44 968.419 1258.48 967.67C1259.52 966.921 1260.43 966.042 1261.21 965.033L1268 972.357C1267.16 973.562 1266.05 974.75 1264.68 975.922C1263.35 977.061 1261.75 978.087 1259.9 978.998C1258.07 979.877 1256.04 980.593 1253.79 981.146C1251.55 981.7 1249.12 981.977 1246.52 981.977ZM1244.91 938.178C1243.38 938.178 1241.98 938.454 1240.71 939.008C1239.44 939.529 1238.31 940.294 1237.34 941.303C1236.39 942.312 1235.6 943.516 1234.95 944.916C1234.29 946.316 1233.81 947.878 1233.48 949.604H1255.75V948.529C1255.68 947.097 1255.4 945.746 1254.92 944.477C1254.43 943.207 1253.73 942.117 1252.82 941.205C1251.9 940.261 1250.78 939.529 1249.45 939.008C1248.15 938.454 1246.63 938.178 1244.91 938.178ZM1303.4 965.326L1304.09 969.135L1304.77 965.473L1316.39 928.168H1330.55L1310.48 981H1297.74L1277.57 928.168H1291.73L1303.4 965.326ZM559.652 1098V1026.91H583.529C587.403 1026.91 590.919 1027.3 594.076 1028.08C597.266 1028.86 599.984 1030.05 602.23 1031.64C604.477 1033.24 606.202 1035.26 607.406 1037.7C608.643 1040.14 609.262 1043.02 609.262 1046.34C609.229 1049.66 608.334 1052.64 606.576 1055.28C604.851 1057.91 602.296 1059.91 598.91 1061.28C600.961 1061.8 602.735 1062.58 604.232 1063.62C605.73 1064.67 606.967 1065.9 607.943 1067.34C608.952 1068.74 609.685 1070.28 610.141 1071.97C610.629 1073.63 610.873 1075.36 610.873 1077.15C610.873 1080.57 610.287 1083.58 609.115 1086.18C607.943 1088.79 606.267 1090.97 604.086 1092.73C601.905 1094.48 599.252 1095.8 596.127 1096.68C593.002 1097.56 589.486 1098 585.58 1098H559.652ZM573.422 1066.65V1086.92H585.629C589.372 1086.88 592.221 1085.97 594.174 1084.18C596.16 1082.36 597.152 1079.98 597.152 1077.05C597.185 1073.8 596.306 1071.26 594.516 1069.44C592.725 1067.61 589.958 1066.68 586.215 1066.65H573.422ZM573.422 1056.74H583.627C587.436 1056.71 590.365 1055.91 592.416 1054.35C594.467 1052.79 595.508 1050.49 595.541 1047.46C595.541 1044.14 594.516 1041.77 592.465 1040.33C590.414 1038.87 587.452 1038.12 583.578 1038.09H573.422V1056.74ZM623.129 1023H652.67V1086.96H667.807V1098H623.129V1086.96H638.949V1034.08H623.129V1023ZM678.5 1071.1C678.5 1067.25 679.053 1063.71 680.16 1060.45C681.267 1057.16 682.878 1054.32 684.994 1051.91C687.143 1049.5 689.747 1047.61 692.807 1046.24C695.899 1044.88 699.431 1044.19 703.402 1044.19C707.374 1044.19 710.906 1044.88 713.998 1046.24C717.09 1047.61 719.695 1049.5 721.811 1051.91C723.959 1054.32 725.587 1057.16 726.693 1060.45C727.8 1063.71 728.354 1067.25 728.354 1071.1V1072.12C728.354 1075.99 727.8 1079.58 726.693 1082.86C725.587 1086.12 723.975 1088.95 721.859 1091.36C719.743 1093.77 717.139 1095.66 714.047 1097.02C710.954 1098.36 707.439 1099.03 703.5 1099.03C699.529 1099.03 695.98 1098.36 692.855 1097.02C689.763 1095.66 687.143 1093.77 684.994 1091.36C682.878 1088.95 681.267 1086.12 680.16 1082.86C679.053 1079.58 678.5 1075.99 678.5 1072.12V1071.1ZM692.074 1072.12C692.074 1074.33 692.286 1076.42 692.709 1078.37C693.132 1080.29 693.799 1081.98 694.711 1083.45C695.622 1084.88 696.794 1086.02 698.227 1086.87C699.691 1087.71 701.449 1088.14 703.5 1088.14C705.486 1088.14 707.195 1087.71 708.627 1086.87C710.059 1086.02 711.215 1084.88 712.094 1083.45C713.005 1081.98 713.673 1080.29 714.096 1078.37C714.519 1076.42 714.73 1074.33 714.73 1072.12V1071.1C714.73 1068.95 714.519 1066.91 714.096 1064.99C713.673 1063.07 713.005 1061.38 712.094 1059.91C711.215 1058.45 710.059 1057.29 708.627 1056.45C707.195 1055.6 705.453 1055.18 703.402 1055.18C701.384 1055.18 699.659 1055.6 698.227 1056.45C696.794 1057.29 695.622 1058.45 694.711 1059.91C693.799 1061.38 693.132 1063.07 692.709 1064.99C692.286 1066.91 692.074 1068.95 692.074 1071.1V1072.12ZM739.047 1071.19C739.047 1067.19 739.535 1063.53 740.512 1060.21C741.521 1056.89 742.953 1054.04 744.809 1051.66C746.664 1049.29 748.91 1047.45 751.547 1046.14C754.184 1044.84 757.162 1044.19 760.482 1044.19C763.575 1044.19 766.228 1044.71 768.441 1045.75C770.655 1046.8 772.543 1048.28 774.105 1050.2L774.643 1045.17H786.996V1096.29C786.996 1099.87 786.378 1103.06 785.141 1105.86C783.936 1108.66 782.227 1111.02 780.014 1112.94C777.833 1114.86 775.196 1116.31 772.104 1117.29C769.044 1118.3 765.658 1118.8 761.947 1118.8C760.352 1118.8 758.643 1118.64 756.82 1118.31C754.997 1117.99 753.191 1117.48 751.4 1116.8C749.61 1116.12 747.917 1115.24 746.322 1114.16C744.727 1113.12 743.36 1111.87 742.221 1110.4L748.324 1102.15C750.049 1104.1 752.003 1105.58 754.184 1106.59C756.365 1107.64 758.725 1108.16 761.264 1108.16C765.072 1108.16 768.035 1107.13 770.15 1105.08C772.299 1103.06 773.373 1100.18 773.373 1096.44V1093.41C771.778 1095.17 769.906 1096.54 767.758 1097.51C765.642 1098.49 763.184 1098.98 760.385 1098.98C757.097 1098.98 754.135 1098.31 751.498 1096.97C748.894 1095.61 746.664 1093.74 744.809 1091.36C742.953 1088.98 741.521 1086.17 740.512 1082.91C739.535 1079.62 739.047 1076.06 739.047 1072.22V1071.19ZM752.67 1072.22C752.67 1074.43 752.882 1076.5 753.305 1078.42C753.76 1080.31 754.444 1081.97 755.355 1083.4C756.267 1084.8 757.423 1085.91 758.822 1086.72C760.222 1087.53 761.882 1087.94 763.803 1087.94C766.179 1087.94 768.132 1087.49 769.662 1086.57C771.225 1085.66 772.462 1084.39 773.373 1082.77V1060.4C772.462 1058.74 771.225 1057.47 769.662 1056.59C768.132 1055.68 766.212 1055.23 763.9 1055.23C761.98 1055.23 760.32 1055.65 758.92 1056.5C757.52 1057.31 756.348 1058.45 755.404 1059.91C754.493 1061.35 753.809 1063.04 753.354 1064.99C752.898 1066.91 752.67 1068.98 752.67 1071.19V1072.22ZM834.555 1083.5C834.555 1082.68 834.359 1081.97 833.969 1081.35C833.611 1080.73 832.943 1080.16 831.967 1079.64C831.023 1079.09 829.753 1078.58 828.158 1078.13C826.563 1077.67 824.545 1077.22 822.104 1076.76C819.011 1076.14 816.179 1075.38 813.607 1074.46C811.068 1073.52 808.887 1072.4 807.064 1071.1C805.242 1069.76 803.809 1068.23 802.768 1066.51C801.758 1064.78 801.254 1062.79 801.254 1060.55C801.254 1058.37 801.775 1056.28 802.816 1054.3C803.858 1052.31 805.355 1050.57 807.309 1049.07C809.262 1047.58 811.638 1046.39 814.438 1045.51C817.237 1044.63 820.395 1044.19 823.91 1044.19C827.589 1044.19 830.893 1044.63 833.822 1045.51C836.752 1046.36 839.226 1047.54 841.244 1049.07C843.295 1050.57 844.857 1052.36 845.932 1054.45C847.006 1056.53 847.543 1058.79 847.543 1061.23H833.969C833.969 1059.18 833.139 1057.47 831.479 1056.11C829.818 1054.71 827.296 1054.01 823.91 1054.01C820.753 1054.01 818.36 1054.58 816.732 1055.71C815.137 1056.85 814.34 1058.25 814.34 1059.91C814.34 1060.7 814.503 1061.43 814.828 1062.11C815.154 1062.76 815.723 1063.36 816.537 1063.92C817.383 1064.44 818.523 1064.93 819.955 1065.38C821.387 1065.81 823.21 1066.18 825.424 1066.51C828.614 1067.03 831.576 1067.69 834.311 1068.51C837.045 1069.32 839.405 1070.38 841.391 1071.68C843.376 1072.95 844.923 1074.51 846.029 1076.37C847.169 1078.19 847.738 1080.37 847.738 1082.91C847.738 1085.26 847.169 1087.42 846.029 1089.41C844.923 1091.36 843.327 1093.05 841.244 1094.48C839.193 1095.92 836.703 1097.04 833.773 1097.85C830.844 1098.63 827.572 1099.03 823.959 1099.03C819.988 1099.03 816.472 1098.5 813.412 1097.46C810.385 1096.42 807.846 1095.07 805.795 1093.41C803.744 1091.72 802.182 1089.81 801.107 1087.7C800.066 1085.55 799.545 1083.4 799.545 1081.25H812.484C812.582 1082.68 812.973 1083.92 813.656 1084.96C814.34 1085.97 815.219 1086.8 816.293 1087.45C817.367 1088.07 818.588 1088.53 819.955 1088.82C821.355 1089.11 822.787 1089.26 824.252 1089.26C827.605 1089.26 830.16 1088.72 831.918 1087.65C833.676 1086.57 834.555 1085.19 834.555 1083.5Z" fill="#4285F4"/>
<path d="M114.242 966.156H92.9043L88.7051 981H74.252L97.543 909.906H109.994L132.846 981H118.393L114.242 966.156ZM96.2734 954.486H111.02L103.744 928.314L96.2734 954.486ZM173.617 964.447L178.207 928.168H190.658L181.186 981H169.271L162.338 947.406L155.648 981H143.734L134.262 928.168H146.664L151.254 964.594L157.895 928.168H166.977L173.617 964.447ZM225.521 981.977C221.452 981.977 217.758 981.309 214.438 979.975C211.117 978.64 208.269 976.833 205.893 974.555C203.516 972.243 201.677 969.542 200.375 966.449C199.105 963.324 198.471 959.988 198.471 956.439V954.486C198.471 950.45 199.105 946.771 200.375 943.451C201.645 940.098 203.419 937.217 205.697 934.809C207.976 932.4 210.678 930.528 213.803 929.193C216.928 927.859 220.329 927.191 224.008 927.191C227.816 927.191 231.202 927.826 234.164 929.096C237.159 930.333 239.682 932.09 241.732 934.369C243.816 936.648 245.395 939.398 246.469 942.621C247.543 945.811 248.08 949.343 248.08 953.217V958.979H212.24C212.501 960.769 213.021 962.413 213.803 963.91C214.617 965.375 215.642 966.645 216.879 967.719C218.116 968.793 219.532 969.623 221.127 970.209C222.722 970.795 224.464 971.088 226.352 971.088C227.686 971.088 229.005 970.958 230.307 970.697C231.641 970.437 232.911 970.062 234.115 969.574C235.32 969.053 236.443 968.419 237.484 967.67C238.526 966.921 239.438 966.042 240.219 965.033L247.006 972.357C246.16 973.562 245.053 974.75 243.686 975.922C242.351 977.061 240.756 978.087 238.9 978.998C237.077 979.877 235.043 980.593 232.797 981.146C230.551 981.7 228.126 981.977 225.521 981.977ZM223.91 938.178C222.38 938.178 220.98 938.454 219.711 939.008C218.441 939.529 217.318 940.294 216.342 941.303C215.398 942.312 214.6 943.516 213.949 944.916C213.298 946.316 212.81 947.878 212.484 949.604H234.75V948.529C234.685 947.097 234.408 945.746 233.92 944.477C233.432 943.207 232.732 942.117 231.82 941.205C230.909 940.261 229.786 939.529 228.451 939.008C227.149 938.454 225.635 938.178 223.91 938.178ZM294.027 966.498C294.027 965.684 293.832 964.968 293.441 964.35C293.083 963.731 292.416 963.161 291.439 962.641C290.495 962.087 289.226 961.583 287.631 961.127C286.036 960.671 284.018 960.215 281.576 959.76C278.484 959.141 275.652 958.376 273.08 957.465C270.541 956.521 268.36 955.398 266.537 954.096C264.714 952.761 263.282 951.231 262.24 949.506C261.231 947.781 260.727 945.795 260.727 943.549C260.727 941.368 261.247 939.285 262.289 937.299C263.331 935.313 264.828 933.572 266.781 932.074C268.734 930.577 271.111 929.389 273.91 928.51C276.71 927.631 279.867 927.191 283.383 927.191C287.061 927.191 290.365 927.631 293.295 928.51C296.225 929.356 298.699 930.544 300.717 932.074C302.768 933.572 304.33 935.362 305.404 937.445C306.479 939.529 307.016 941.791 307.016 944.232H293.441C293.441 942.182 292.611 940.473 290.951 939.105C289.291 937.706 286.768 937.006 283.383 937.006C280.225 937.006 277.833 937.576 276.205 938.715C274.61 939.854 273.812 941.254 273.812 942.914C273.812 943.695 273.975 944.428 274.301 945.111C274.626 945.762 275.196 946.365 276.01 946.918C276.856 947.439 277.995 947.927 279.428 948.383C280.86 948.806 282.683 949.18 284.896 949.506C288.087 950.027 291.049 950.694 293.783 951.508C296.518 952.322 298.878 953.38 300.863 954.682C302.849 955.951 304.395 957.514 305.502 959.369C306.641 961.192 307.211 963.373 307.211 965.912C307.211 968.256 306.641 970.421 305.502 972.406C304.395 974.359 302.8 976.052 300.717 977.484C298.666 978.917 296.176 980.04 293.246 980.854C290.316 981.635 287.045 982.025 283.432 982.025C279.46 982.025 275.945 981.505 272.885 980.463C269.857 979.421 267.318 978.07 265.268 976.41C263.217 974.717 261.654 972.813 260.58 970.697C259.538 968.549 259.018 966.4 259.018 964.252H271.957C272.055 965.684 272.445 966.921 273.129 967.963C273.812 968.972 274.691 969.802 275.766 970.453C276.84 971.072 278.061 971.527 279.428 971.82C280.827 972.113 282.26 972.26 283.725 972.26C287.077 972.26 289.633 971.723 291.391 970.648C293.148 969.574 294.027 968.191 294.027 966.498ZM318.148 954.096C318.148 950.255 318.702 946.706 319.809 943.451C320.915 940.163 322.527 937.315 324.643 934.906C326.791 932.497 329.395 930.609 332.455 929.242C335.548 927.875 339.079 927.191 343.051 927.191C347.022 927.191 350.554 927.875 353.646 929.242C356.739 930.609 359.343 932.497 361.459 934.906C363.607 937.315 365.235 940.163 366.342 943.451C367.449 946.706 368.002 950.255 368.002 954.096V955.121C368.002 958.995 367.449 962.576 366.342 965.863C365.235 969.118 363.624 971.951 361.508 974.359C359.392 976.768 356.788 978.656 353.695 980.023C350.603 981.358 347.087 982.025 343.148 982.025C339.177 982.025 335.629 981.358 332.504 980.023C329.411 978.656 326.791 976.768 324.643 974.359C322.527 971.951 320.915 969.118 319.809 965.863C318.702 962.576 318.148 958.995 318.148 955.121V954.096ZM331.723 955.121C331.723 957.335 331.934 959.418 332.357 961.371C332.781 963.292 333.448 964.984 334.359 966.449C335.271 967.882 336.443 969.021 337.875 969.867C339.34 970.714 341.098 971.137 343.148 971.137C345.134 971.137 346.843 970.714 348.275 969.867C349.708 969.021 350.863 967.882 351.742 966.449C352.654 964.984 353.321 963.292 353.744 961.371C354.167 959.418 354.379 957.335 354.379 955.121V954.096C354.379 951.947 354.167 949.913 353.744 947.992C353.321 946.072 352.654 944.379 351.742 942.914C350.863 941.449 349.708 940.294 348.275 939.447C346.843 938.601 345.102 938.178 343.051 938.178C341.033 938.178 339.307 938.601 337.875 939.447C336.443 940.294 335.271 941.449 334.359 942.914C333.448 944.379 332.781 946.072 332.357 947.992C331.934 949.913 331.723 951.947 331.723 954.096V955.121ZM388.51 928.168L388.9 934.564C389.91 932.286 391.293 930.495 393.051 929.193C394.841 927.859 397.006 927.191 399.545 927.191C403.809 927.191 406.592 929.063 407.895 932.807C408.936 931.049 410.255 929.682 411.85 928.705C413.477 927.696 415.43 927.191 417.709 927.191C419.304 927.191 420.785 927.484 422.152 928.07C423.552 928.656 424.757 929.6 425.766 930.902C426.807 932.172 427.605 933.832 428.158 935.883C428.744 937.901 429.037 940.375 429.037 943.305V981H416.684V943.256C416.684 942.247 416.57 941.417 416.342 940.766C416.146 940.115 415.87 939.61 415.512 939.252C415.154 938.861 414.73 938.601 414.242 938.471C413.786 938.308 413.314 938.227 412.826 938.227C411.882 938.227 411.085 938.454 410.434 938.91C409.783 939.333 409.278 939.919 408.92 940.668V981H396.957V943.207C396.957 942.198 396.859 941.368 396.664 940.717C396.469 940.066 396.192 939.561 395.834 939.203C395.508 938.845 395.118 938.601 394.662 938.471C394.206 938.308 393.718 938.227 393.197 938.227C392.156 938.227 391.309 938.52 390.658 939.105C390.04 939.691 389.551 940.473 389.193 941.449V981H376.84V928.168H388.51ZM465.756 981.977C461.687 981.977 457.992 981.309 454.672 979.975C451.352 978.64 448.503 976.833 446.127 974.555C443.751 972.243 441.911 969.542 440.609 966.449C439.34 963.324 438.705 959.988 438.705 956.439V954.486C438.705 950.45 439.34 946.771 440.609 943.451C441.879 940.098 443.653 937.217 445.932 934.809C448.21 932.4 450.912 930.528 454.037 929.193C457.162 927.859 460.564 927.191 464.242 927.191C468.051 927.191 471.436 927.826 474.398 929.096C477.393 930.333 479.916 932.09 481.967 934.369C484.05 936.648 485.629 939.398 486.703 942.621C487.777 945.811 488.314 949.343 488.314 953.217V958.979H452.475C452.735 960.769 453.256 962.413 454.037 963.91C454.851 965.375 455.876 966.645 457.113 967.719C458.35 968.793 459.766 969.623 461.361 970.209C462.956 970.795 464.698 971.088 466.586 971.088C467.921 971.088 469.239 970.958 470.541 970.697C471.876 970.437 473.145 970.062 474.35 969.574C475.554 969.053 476.677 968.419 477.719 967.67C478.76 966.921 479.672 966.042 480.453 965.033L487.24 972.357C486.394 973.562 485.287 974.75 483.92 975.922C482.585 977.061 480.99 978.087 479.135 978.998C477.312 979.877 475.277 980.593 473.031 981.146C470.785 981.7 468.36 981.977 465.756 981.977ZM464.145 938.178C462.615 938.178 461.215 938.454 459.945 939.008C458.676 939.529 457.553 940.294 456.576 941.303C455.632 942.312 454.835 943.516 454.184 944.916C453.533 946.316 453.044 947.878 452.719 949.604H474.984V948.529C474.919 947.097 474.643 945.746 474.154 944.477C473.666 943.207 472.966 942.117 472.055 941.205C471.143 940.261 470.02 939.529 468.686 939.008C467.383 938.454 465.87 938.178 464.145 938.178ZM559.652 981V909.906H583.529C587.403 909.906 590.919 910.297 594.076 911.078C597.266 911.859 599.984 913.048 602.23 914.643C604.477 916.238 606.202 918.256 607.406 920.697C608.643 923.139 609.262 926.02 609.262 929.34C609.229 932.66 608.334 935.639 606.576 938.275C604.851 940.912 602.296 942.914 598.91 944.281C600.961 944.802 602.735 945.583 604.232 946.625C605.73 947.667 606.967 948.904 607.943 950.336C608.952 951.736 609.685 953.282 610.141 954.975C610.629 956.635 610.873 958.36 610.873 960.15C610.873 963.568 610.287 966.579 609.115 969.184C607.943 971.788 606.267 973.969 604.086 975.727C601.905 977.484 599.252 978.803 596.127 979.682C593.002 980.561 589.486 981 585.58 981H559.652ZM573.422 949.652V969.916H585.629C589.372 969.883 592.221 968.972 594.174 967.182C596.16 965.359 597.152 962.982 597.152 960.053C597.185 956.798 596.306 954.258 594.516 952.436C592.725 950.613 589.958 949.685 586.215 949.652H573.422ZM573.422 939.74H583.627C587.436 939.708 590.365 938.91 592.416 937.348C594.467 935.785 595.508 933.49 595.541 930.463C595.541 927.143 594.516 924.766 592.465 923.334C590.414 921.869 587.452 921.12 583.578 921.088H573.422V939.74ZM658.236 927.191C660.287 927.191 662.175 927.338 663.9 927.631C665.658 927.891 667.074 928.184 668.148 928.51L666.146 942.035C664.356 941.612 662.517 941.303 660.629 941.107C658.773 940.88 656.999 940.766 655.307 940.766C651.498 940.766 648.438 941.498 646.127 942.963C643.848 944.428 642.139 946.527 641 949.262V981H627.426V928.168H640.072L640.707 936.811C642.855 933.816 645.427 931.472 648.422 929.779C651.417 928.054 654.688 927.191 658.236 927.191ZM713.363 981C713.038 980.349 712.761 979.6 712.533 978.754C712.305 977.908 712.11 977.012 711.947 976.068C711.199 976.882 710.336 977.647 709.359 978.363C708.383 979.079 707.292 979.714 706.088 980.268C704.916 980.788 703.614 981.195 702.182 981.488C700.749 981.814 699.203 981.977 697.543 981.977C694.841 981.977 692.351 981.586 690.072 980.805C687.826 980.023 685.889 978.933 684.262 977.533C682.634 976.133 681.365 974.473 680.453 972.553C679.542 970.6 679.086 968.484 679.086 966.205C679.086 960.639 681.153 956.342 685.287 953.314C689.454 950.255 695.655 948.725 703.891 948.725H711.459V945.6C711.459 943.061 710.629 941.059 708.969 939.594C707.309 938.096 704.916 937.348 701.791 937.348C699.024 937.348 697.006 937.95 695.736 939.154C694.467 940.326 693.832 941.905 693.832 943.891H680.258C680.258 941.645 680.746 939.512 681.723 937.494C682.732 935.476 684.18 933.702 686.068 932.172C687.989 930.642 690.316 929.438 693.051 928.559C695.818 927.647 698.975 927.191 702.523 927.191C705.714 927.191 708.676 927.582 711.41 928.363C714.177 929.145 716.57 930.3 718.588 931.83C720.606 933.36 722.185 935.297 723.324 937.641C724.464 939.952 725.033 942.637 725.033 945.697V968.354C725.033 971.186 725.212 973.529 725.57 975.385C725.928 977.24 726.449 978.835 727.133 980.17V981H713.363ZM700.424 971.479C701.791 971.479 703.061 971.316 704.232 970.99C705.404 970.665 706.462 970.242 707.406 969.721C708.35 969.2 709.164 968.614 709.848 967.963C710.531 967.279 711.068 966.596 711.459 965.912V956.83H704.525C702.41 956.83 700.603 957.042 699.105 957.465C697.608 957.855 696.387 958.425 695.443 959.174C694.499 959.89 693.799 960.769 693.344 961.811C692.888 962.82 692.66 963.926 692.66 965.131C692.66 966.954 693.295 968.467 694.564 969.672C695.867 970.876 697.82 971.479 700.424 971.479ZM757.846 970.111H788.949V981H739.291V972.602L768.881 939.203H739.975V928.168H787.729V936.322L757.846 970.111ZM804.086 928.168H832.846V969.965H847.152V981H804.086V969.965H819.125V939.252H804.086V928.168ZM818.148 914.643C818.148 913.601 818.327 912.641 818.686 911.762C819.076 910.85 819.613 910.085 820.297 909.467C820.98 908.816 821.794 908.311 822.738 907.953C823.715 907.595 824.789 907.416 825.961 907.416C828.37 907.416 830.274 908.1 831.674 909.467C833.106 910.801 833.822 912.527 833.822 914.643C833.822 916.758 833.106 918.5 831.674 919.867C830.274 921.202 828.37 921.869 825.961 921.869C824.789 921.869 823.715 921.69 822.738 921.332C821.794 920.974 820.98 920.486 820.297 919.867C819.613 919.216 819.076 918.451 818.686 917.572C818.327 916.661 818.148 915.684 818.148 914.643ZM863.363 906H892.904V969.965H908.041V981H863.363V969.965H879.184V917.084H863.363V906ZM924.203 928.168H952.963V969.965H967.27V981H924.203V969.965H939.242V939.252H924.203V928.168ZM938.266 914.643C938.266 913.601 938.445 912.641 938.803 911.762C939.193 910.85 939.73 910.085 940.414 909.467C941.098 908.816 941.911 908.311 942.855 907.953C943.832 907.595 944.906 907.416 946.078 907.416C948.487 907.416 950.391 908.1 951.791 909.467C953.223 910.801 953.939 912.527 953.939 914.643C953.939 916.758 953.223 918.5 951.791 919.867C950.391 921.202 948.487 921.869 946.078 921.869C944.906 921.869 943.832 921.69 942.855 921.332C941.911 920.974 941.098 920.486 940.414 919.867C939.73 919.216 939.193 918.451 938.803 917.572C938.445 916.661 938.266 915.684 938.266 914.643ZM1013.66 981C1013.33 980.349 1013.05 979.6 1012.83 978.754C1012.6 977.908 1012.4 977.012 1012.24 976.068C1011.49 976.882 1010.63 977.647 1009.65 978.363C1008.68 979.079 1007.59 979.714 1006.38 980.268C1005.21 980.788 1003.91 981.195 1002.47 981.488C1001.04 981.814 999.496 981.977 997.836 981.977C995.134 981.977 992.644 981.586 990.365 980.805C988.119 980.023 986.182 978.933 984.555 977.533C982.927 976.133 981.658 974.473 980.746 972.553C979.835 970.6 979.379 968.484 979.379 966.205C979.379 960.639 981.446 956.342 985.58 953.314C989.747 950.255 995.948 948.725 1004.18 948.725H1011.75V945.6C1011.75 943.061 1010.92 941.059 1009.26 939.594C1007.6 938.096 1005.21 937.348 1002.08 937.348C999.317 937.348 997.299 937.95 996.029 939.154C994.76 940.326 994.125 941.905 994.125 943.891H980.551C980.551 941.645 981.039 939.512 982.016 937.494C983.025 935.476 984.473 933.702 986.361 932.172C988.282 930.642 990.609 929.438 993.344 928.559C996.111 927.647 999.268 927.191 1002.82 927.191C1006.01 927.191 1008.97 927.582 1011.7 928.363C1014.47 929.145 1016.86 930.3 1018.88 931.83C1020.9 933.36 1022.48 935.297 1023.62 937.641C1024.76 939.952 1025.33 942.637 1025.33 945.697V968.354C1025.33 971.186 1025.51 973.529 1025.86 975.385C1026.22 977.24 1026.74 978.835 1027.43 980.17V981H1013.66ZM1000.72 971.479C1002.08 971.479 1003.35 971.316 1004.53 970.99C1005.7 970.665 1006.76 970.242 1007.7 969.721C1008.64 969.2 1009.46 968.614 1010.14 967.963C1010.82 967.279 1011.36 966.596 1011.75 965.912V956.83H1004.82C1002.7 956.83 1000.9 957.042 999.398 957.465C997.901 957.855 996.68 958.425 995.736 959.174C994.792 959.89 994.092 960.769 993.637 961.811C993.181 962.82 992.953 963.926 992.953 965.131C992.953 966.954 993.588 968.467 994.857 969.672C996.16 970.876 998.113 971.479 1000.72 971.479ZM1053.01 928.168L1053.84 935.492C1055.73 932.855 1058.02 930.821 1060.73 929.389C1063.43 927.924 1066.42 927.191 1069.71 927.191C1072.38 927.191 1074.82 927.582 1077.04 928.363C1079.25 929.145 1081.15 930.398 1082.75 932.123C1084.38 933.816 1085.63 936.013 1086.51 938.715C1087.42 941.384 1087.88 944.639 1087.88 948.48V981H1074.3V948.676C1074.3 946.592 1074.06 944.883 1073.57 943.549C1073.11 942.182 1072.45 941.107 1071.57 940.326C1070.69 939.545 1069.63 939.008 1068.39 938.715C1067.16 938.389 1065.76 938.227 1064.19 938.227C1061.88 938.227 1059.91 938.699 1058.29 939.643C1056.66 940.554 1055.34 941.824 1054.33 943.451V981H1040.71V928.168H1053.01ZM1160.04 981V909.906H1178.45C1183.17 909.906 1187.44 910.72 1191.24 912.348C1195.09 913.943 1198.36 916.189 1201.06 919.086C1203.79 921.951 1205.89 925.385 1207.36 929.389C1208.85 933.393 1209.6 937.787 1209.6 942.572V948.432C1209.6 953.217 1208.85 957.611 1207.36 961.615C1205.89 965.587 1203.83 969.021 1201.16 971.918C1198.49 974.783 1195.28 977.012 1191.54 978.607C1187.79 980.202 1183.66 981 1179.13 981H1160.04ZM1173.86 921.039V969.965H1179.13C1181.71 969.965 1184 969.477 1186.02 968.5C1188.07 967.523 1189.8 966.107 1191.2 964.252C1192.63 962.396 1193.72 960.15 1194.47 957.514C1195.22 954.844 1195.59 951.817 1195.59 948.432V942.475C1195.59 939.285 1195.22 936.387 1194.47 933.783C1193.75 931.146 1192.66 928.884 1191.2 926.996C1189.76 925.108 1187.97 923.643 1185.82 922.602C1183.71 921.56 1181.25 921.039 1178.45 921.039H1173.86ZM1246.52 981.977C1242.45 981.977 1238.75 981.309 1235.43 979.975C1232.11 978.64 1229.26 976.833 1226.89 974.555C1224.51 972.243 1222.67 969.542 1221.37 966.449C1220.1 963.324 1219.47 959.988 1219.47 956.439V954.486C1219.47 950.45 1220.1 946.771 1221.37 943.451C1222.64 940.098 1224.41 937.217 1226.69 934.809C1228.97 932.4 1231.67 930.528 1234.8 929.193C1237.92 927.859 1241.33 927.191 1245 927.191C1248.81 927.191 1252.2 927.826 1255.16 929.096C1258.15 930.333 1260.68 932.09 1262.73 934.369C1264.81 936.648 1266.39 939.398 1267.46 942.621C1268.54 945.811 1269.08 949.343 1269.08 953.217V958.979H1233.24C1233.5 960.769 1234.02 962.413 1234.8 963.91C1235.61 965.375 1236.64 966.645 1237.88 967.719C1239.11 968.793 1240.53 969.623 1242.12 970.209C1243.72 970.795 1245.46 971.088 1247.35 971.088C1248.68 971.088 1250 970.958 1251.3 970.697C1252.64 970.437 1253.91 970.062 1255.11 969.574C1256.32 969.053 1257.44 968.419 1258.48 967.67C1259.52 966.921 1260.43 966.042 1261.21 965.033L1268 972.357C1267.16 973.562 1266.05 974.75 1264.68 975.922C1263.35 977.061 1261.75 978.087 1259.9 978.998C1258.07 979.877 1256.04 980.593 1253.79 981.146C1251.55 981.7 1249.12 981.977 1246.52 981.977ZM1244.91 938.178C1243.38 938.178 1241.98 938.454 1240.71 939.008C1239.44 939.529 1238.31 940.294 1237.34 941.303C1236.39 942.312 1235.6 943.516 1234.95 944.916C1234.29 946.316 1233.81 947.878 1233.48 949.604H1255.75V948.529C1255.68 947.097 1255.4 945.746 1254.92 944.477C1254.43 943.207 1253.73 942.117 1252.82 941.205C1251.9 940.261 1250.78 939.529 1249.45 939.008C1248.15 938.454 1246.63 938.178 1244.91 938.178ZM1303.4 965.326L1304.09 969.135L1304.77 965.473L1316.39 928.168H1330.55L1310.48 981H1297.74L1277.57 928.168H1291.73L1303.4 965.326ZM559.652 1098V1026.91H583.529C587.403 1026.91 590.919 1027.3 594.076 1028.08C597.266 1028.86 599.984 1030.05 602.23 1031.64C604.477 1033.24 606.202 1035.26 607.406 1037.7C608.643 1040.14 609.262 1043.02 609.262 1046.34C609.229 1049.66 608.334 1052.64 606.576 1055.28C604.851 1057.91 602.296 1059.91 598.91 1061.28C600.961 1061.8 602.735 1062.58 604.232 1063.62C605.73 1064.67 606.967 1065.9 607.943 1067.34C608.952 1068.74 609.685 1070.28 610.141 1071.97C610.629 1073.63 610.873 1075.36 610.873 1077.15C610.873 1080.57 610.287 1083.58 609.115 1086.18C607.943 1088.79 606.267 1090.97 604.086 1092.73C601.905 1094.48 599.252 1095.8 596.127 1096.68C593.002 1097.56 589.486 1098 585.58 1098H559.652ZM573.422 1066.65V1086.92H585.629C589.372 1086.88 592.221 1085.97 594.174 1084.18C596.16 1082.36 597.152 1079.98 597.152 1077.05C597.185 1073.8 596.306 1071.26 594.516 1069.44C592.725 1067.61 589.958 1066.68 586.215 1066.65H573.422ZM573.422 1056.74H583.627C587.436 1056.71 590.365 1055.91 592.416 1054.35C594.467 1052.79 595.508 1050.49 595.541 1047.46C595.541 1044.14 594.516 1041.77 592.465 1040.33C590.414 1038.87 587.452 1038.12 583.578 1038.09H573.422V1056.74ZM623.129 1023H652.67V1086.96H667.807V1098H623.129V1086.96H638.949V1034.08H623.129V1023ZM678.5 1071.1C678.5 1067.25 679.053 1063.71 680.16 1060.45C681.267 1057.16 682.878 1054.32 684.994 1051.91C687.143 1049.5 689.747 1047.61 692.807 1046.24C695.899 1044.88 699.431 1044.19 703.402 1044.19C707.374 1044.19 710.906 1044.88 713.998 1046.24C717.09 1047.61 719.695 1049.5 721.811 1051.91C723.959 1054.32 725.587 1057.16 726.693 1060.45C727.8 1063.71 728.354 1067.25 728.354 1071.1V1072.12C728.354 1075.99 727.8 1079.58 726.693 1082.86C725.587 1086.12 723.975 1088.95 721.859 1091.36C719.743 1093.77 717.139 1095.66 714.047 1097.02C710.954 1098.36 707.439 1099.03 703.5 1099.03C699.529 1099.03 695.98 1098.36 692.855 1097.02C689.763 1095.66 687.143 1093.77 684.994 1091.36C682.878 1088.95 681.267 1086.12 680.16 1082.86C679.053 1079.58 678.5 1075.99 678.5 1072.12V1071.1ZM692.074 1072.12C692.074 1074.33 692.286 1076.42 692.709 1078.37C693.132 1080.29 693.799 1081.98 694.711 1083.45C695.622 1084.88 696.794 1086.02 698.227 1086.87C699.691 1087.71 701.449 1088.14 703.5 1088.14C705.486 1088.14 707.195 1087.71 708.627 1086.87C710.059 1086.02 711.215 1084.88 712.094 1083.45C713.005 1081.98 713.673 1080.29 714.096 1078.37C714.519 1076.42 714.73 1074.33 714.73 1072.12V1071.1C714.73 1068.95 714.519 1066.91 714.096 1064.99C713.673 1063.07 713.005 1061.38 712.094 1059.91C711.215 1058.45 710.059 1057.29 708.627 1056.45C707.195 1055.6 705.453 1055.18 703.402 1055.18C701.384 1055.18 699.659 1055.6 698.227 1056.45C696.794 1057.29 695.622 1058.45 694.711 1059.91C693.799 1061.38 693.132 1063.07 692.709 1064.99C692.286 1066.91 692.074 1068.95 692.074 1071.1V1072.12ZM739.047 1071.19C739.047 1067.19 739.535 1063.53 740.512 1060.21C741.521 1056.89 742.953 1054.04 744.809 1051.66C746.664 1049.29 748.91 1047.45 751.547 1046.14C754.184 1044.84 757.162 1044.19 760.482 1044.19C763.575 1044.19 766.228 1044.71 768.441 1045.75C770.655 1046.8 772.543 1048.28 774.105 1050.2L774.643 1045.17H786.996V1096.29C786.996 1099.87 786.378 1103.06 785.141 1105.86C783.936 1108.66 782.227 1111.02 780.014 1112.94C777.833 1114.86 775.196 1116.31 772.104 1117.29C769.044 1118.3 765.658 1118.8 761.947 1118.8C760.352 1118.8 758.643 1118.64 756.82 1118.31C754.997 1117.99 753.191 1117.48 751.4 1116.8C749.61 1116.12 747.917 1115.24 746.322 1114.16C744.727 1113.12 743.36 1111.87 742.221 1110.4L748.324 1102.15C750.049 1104.1 752.003 1105.58 754.184 1106.59C756.365 1107.64 758.725 1108.16 761.264 1108.16C765.072 1108.16 768.035 1107.13 770.15 1105.08C772.299 1103.06 773.373 1100.18 773.373 1096.44V1093.41C771.778 1095.17 769.906 1096.54 767.758 1097.51C765.642 1098.49 763.184 1098.98 760.385 1098.98C757.097 1098.98 754.135 1098.31 751.498 1096.97C748.894 1095.61 746.664 1093.74 744.809 1091.36C742.953 1088.98 741.521 1086.17 740.512 1082.91C739.535 1079.62 739.047 1076.06 739.047 1072.22V1071.19ZM752.67 1072.22C752.67 1074.43 752.882 1076.5 753.305 1078.42C753.76 1080.31 754.444 1081.97 755.355 1083.4C756.267 1084.8 757.423 1085.91 758.822 1086.72C760.222 1087.53 761.882 1087.94 763.803 1087.94C766.179 1087.94 768.132 1087.49 769.662 1086.57C771.225 1085.66 772.462 1084.39 773.373 1082.77V1060.4C772.462 1058.74 771.225 1057.47 769.662 1056.59C768.132 1055.68 766.212 1055.23 763.9 1055.23C761.98 1055.23 760.32 1055.65 758.92 1056.5C757.52 1057.31 756.348 1058.45 755.404 1059.91C754.493 1061.35 753.809 1063.04 753.354 1064.99C752.898 1066.91 752.67 1068.98 752.67 1071.19V1072.22ZM834.555 1083.5C834.555 1082.68 834.359 1081.97 833.969 1081.35C833.611 1080.73 832.943 1080.16 831.967 1079.64C831.023 1079.09 829.753 1078.58 828.158 1078.13C826.563 1077.67 824.545 1077.22 822.104 1076.76C819.011 1076.14 816.179 1075.38 813.607 1074.46C811.068 1073.52 808.887 1072.4 807.064 1071.1C805.242 1069.76 803.809 1068.23 802.768 1066.51C801.758 1064.78 801.254 1062.79 801.254 1060.55C801.254 1058.37 801.775 1056.28 802.816 1054.3C803.858 1052.31 805.355 1050.57 807.309 1049.07C809.262 1047.58 811.638 1046.39 814.438 1045.51C817.237 1044.63 820.395 1044.19 823.91 1044.19C827.589 1044.19 830.893 1044.63 833.822 1045.51C836.752 1046.36 839.226 1047.54 841.244 1049.07C843.295 1050.57 844.857 1052.36 845.932 1054.45C847.006 1056.53 847.543 1058.79 847.543 1061.23H833.969C833.969 1059.18 833.139 1057.47 831.479 1056.11C829.818 1054.71 827.296 1054.01 823.91 1054.01C820.753 1054.01 818.36 1054.58 816.732 1055.71C815.137 1056.85 814.34 1058.25 814.34 1059.91C814.34 1060.7 814.503 1061.43 814.828 1062.11C815.154 1062.76 815.723 1063.36 816.537 1063.92C817.383 1064.44 818.523 1064.93 819.955 1065.38C821.387 1065.81 823.21 1066.18 825.424 1066.51C828.614 1067.03 831.576 1067.69 834.311 1068.51C837.045 1069.32 839.405 1070.38 841.391 1071.68C843.376 1072.95 844.923 1074.51 846.029 1076.37C847.169 1078.19 847.738 1080.37 847.738 1082.91C847.738 1085.26 847.169 1087.42 846.029 1089.41C844.923 1091.36 843.327 1093.05 841.244 1094.48C839.193 1095.92 836.703 1097.04 833.773 1097.85C830.844 1098.63 827.572 1099.03 823.959 1099.03C819.988 1099.03 816.472 1098.5 813.412 1097.46C810.385 1096.42 807.846 1095.07 805.795 1093.41C803.744 1091.72 802.182 1089.81 801.107 1087.7C800.066 1085.55 799.545 1083.4 799.545 1081.25H812.484C812.582 1082.68 812.973 1083.92 813.656 1084.96C814.34 1085.97 815.219 1086.8 816.293 1087.45C817.367 1088.07 818.588 1088.53 819.955 1088.82C821.355 1089.11 822.787 1089.26 824.252 1089.26C827.605 1089.26 830.16 1088.72 831.918 1087.65C833.676 1086.57 834.555 1085.19 834.555 1083.5Z" fill="url(#paint3_linear)"/>
<defs>
<filter id="filter0_d" x="404.708" y="133" width="598" height="598" filterUnits="userSpaceOnUse" color-interpolation-filters="sRGB">
<feFlood flood-opacity="0" result="BackgroundImageFix"/>
<feColorMatrix in="SourceAlpha" type="matrix" values="0 0 0 0 0 0 0 0 0 0 0 0 0 0 0 0 0 0 127 0"/>
<feOffset/>
<feGaussianBlur stdDeviation="5"/>
<feColorMatrix type="matrix" values="0 0 0 0 0 0 0 0 0 0.924284 0 0 0 0 0.258799 0 0 0 1 0"/>
<feBlend mode="normal" in2="BackgroundImageFix" result="effect1_dropShadow"/>
<feBlend mode="normal" in="SourceGraphic" in2="effect1_dropShadow" result="shape"/>
</filter>
<filter id="filter1_d" x="272" y="0" width="863.415" height="863.415" filterUnits="userSpaceOnUse" color-interpolation-filters="sRGB">
<feFlood flood-opacity="0" result="BackgroundImageFix"/>
<feColorMatrix in="SourceAlpha" type="matrix" values="0 0 0 0 0 0 0 0 0 0 0 0 0 0 0 0 0 0 127 0"/>
<feOffset/>
<feGaussianBlur stdDeviation="11.5"/>
<feColorMatrix type="matrix" values="0 0 0 0 1 0 0 0 0 0.72 0 0 0 0 0 0 0 0 1 0"/>
<feBlend mode="normal" in2="BackgroundImageFix" result="effect1_dropShadow"/>
<feBlend mode="normal" in="SourceGraphic" in2="effect1_dropShadow" result="shape"/>
</filter>
<filter id="filter2_d" x="467.708" y="196" width="471" height="471" filterUnits="userSpaceOnUse" color-interpolation-filters="sRGB">
<feFlood flood-opacity="0" result="BackgroundImageFix"/>
<feColorMatrix in="SourceAlpha" type="matrix" values="0 0 0 0 0 0 0 0 0 0 0 0 0 0 0 0 0 0 127 0"/>
<feOffset/>
<feGaussianBlur stdDeviation="23.5"/>
<feColorMatrix type="matrix" values="0 0 0 0 0.337255 0 0 0 0 0.8 0 0 0 0 0.94902 0 0 0 1 0"/>
<feBlend mode="normal" in2="BackgroundImageFix" result="effect1_dropShadow"/>
<feBlend mode="normal" in="SourceGraphic" in2="effect1_dropShadow" result="shape"/>
</filter>
<linearGradient id="paint0_linear" x1="703.708" y1="143" x2="703.708" y2="721" gradientUnits="userSpaceOnUse">
<stop stop-color="#00EC42"/>
<stop offset="1" stop-color="white" stop-opacity="0"/>
</linearGradient>
<linearGradient id="paint1_linear" x1="1300.71" y1="601.207" x2="713.107" y2="13.6011" gradientUnits="userSpaceOnUse">
<stop stop-color="#FFA235"/>
<stop offset="1" stop-color="white" stop-opacity="0"/>
</linearGradient>
<linearGradient id="paint2_linear" x1="703" y1="620" x2="703" y2="75" gradientUnits="userSpaceOnUse">
<stop stop-color="#4285F4"/>
<stop offset="1" stop-color="white" stop-opacity="0"/>
</linearGradient>
<linearGradient id="paint3_linear" x1="703.5" y1="749" x2="703.5" y2="1261" gradientUnits="userSpaceOnUse">
<stop stop-color="#56CCF2"/>
<stop offset="1" stop-color="#4285F4"/>
</linearGradient>
</defs>
</svg>
